# xmcd CD database file generated by MAGIX-FreeDB- v3.0beta1
#
# Track frame offsets:
#	150
#	19915
#	41870
#	62637
#	90560
#	108960
#	134007
#	149582
#	170572
#	190102
#	211357
#	231665
#
# Disc length: 3494
#
# Revision: 39
# Processed by: cddbd v1.5.2PL0 Copyright (c) Steve Scherf et al.
# Submitted via: MAGIX-FreeDB- v3.0beta1
#
DISCID=b70da40c
DTITLE=Tina Turner - Wildest Dreams
DYEAR=1996
DGENRE=Rock - Rhythm and Blues
TTITLE0=Do What You Do
TTITLE1=Whatever You Want
TTITLE2=Missing You
TTITLE3=On Silent Wings
TTITLE4=Thief Of Hearts
TTITLE5=In Your Wildest Dreams
TTITLE6=Goldeneye
TTITLE7=Confidential
TTITLE8=Something Beautiful Remains
TTITLE9=All Kinds Of People
TTITLE10=Unfinished Sympathy
TTITLE11=Dancing In My Dreams
EXTD=
EXTT0=
EXTT1=
EXTT2=
EXTT3=
EXTT4=
EXTT5=
EXTT6=
EXTT7=
EXTT8=
EXTT9=
EXTT10=
EXTT11=
PLAYORDER=
